<svg xmlns="http://www.w3.org/2000/svg" viewBox="0 0 320 220"><g id="accentSoft" fill="#778899" stroke="#778899" stroke-width="4" stroke-linecap="round" stroke-linejoin="round"><path d="M32 176Q160 144 288 176Q160 210 32 176z"/></g><g id="accentSoft" fill="#778899" stroke="#778899" stroke-width="4" stroke-linecap="round" stroke-linejoin="round"><rect x="74" y="26" width="172" height="150" rx="26"/></g><g id="surface" fill="#AABBCC" stroke="#AABBCC" stroke-width="4" stroke-linecap="round" stroke-linejoin="round"><rect x="86" y="38" width="148" height="126" rx="18"/></g><g transform="translate(112 65) scale(4.0)"><g xmlns="http://www.w3.org/2000/svg" fill="none" stroke="#112233" stroke-width="2" stroke-linecap="round" stroke-linejoin="round"><circle cx="5" cy="6" r="1" /><circle cx="5" cy="12" r="1" /><circle cx="5" cy="18" r="1" /><path d="M9 6 L20 6" /><path d="M9 12 L20 12" /><path d="M9 18 L20 18" /></g>
</g><g id="accent" fill="#445566" stroke="#445566" stroke-width="0" stroke-linecap="round" stroke-linejoin="round"><circle cx="60" cy="72" r="9"/><circle cx="264" cy="112" r="6"/></g><g id="outline" fill="none" stroke="#DDEEFF" stroke-width="4" stroke-linecap="round" stroke-linejoin="round"><path d="M45 160q30-45 64-28 M228 164q17-40 47-18"/></g></svg>
